<?xml version="1.0" encoding="UTF-8" standalone="no"?>
<!-- Created with Inkscape (http://www.inkscape.org/) -->

<svg
   xmlns:dc="http://purl.org/dc/elements/1.1/"
   xmlns:cc="http://creativecommons.org/ns#"
   xmlns:rdf="http://www.w3.org/1999/02/22-rdf-syntax-ns#"
   xmlns:svg="http://www.w3.org/2000/svg"
   xmlns="http://www.w3.org/2000/svg"
   xmlns:sodipodi="http://sodipodi.sourceforge.net/DTD/sodipodi-0.dtd"
   xmlns:inkscape="http://www.inkscape.org/namespaces/inkscape"
   width="1920"
   height="1080"
   viewBox="0 0 508.00003 285.74998"
   version="1.1"
   id="svg8"
   inkscape:version="0.92.4 (5da689c313, 2019-01-14)"
   sodipodi:docname="challenger.svg"
   inkscape:export-filename="/home/unknown/Documents/code/challenger_limitations/challenger.png"
   inkscape:export-xdpi="96"
   inkscape:export-ydpi="96">
  <defs
     id="defs2" />
  <sodipodi:namedview
     id="base"
     pagecolor="#ffffff"
     bordercolor="#666666"
     borderopacity="1.0"
     inkscape:pageopacity="0.0"
     inkscape:pageshadow="2"
     inkscape:zoom="0.28346769"
     inkscape:cx="791.50593"
     inkscape:cy="627.69304"
     inkscape:document-units="px"
     inkscape:current-layer="layer1"
     showgrid="false"
     inkscape:window-width="1920"
     inkscape:window-height="1129"
     inkscape:window-x="0"
     inkscape:window-y="652"
     inkscape:window-maximized="1"
     units="px">
    <inkscape:grid
       type="xygrid"
       id="grid827" />
  </sodipodi:namedview>
  <metadata
     id="metadata5">
    <rdf:RDF>
      <cc:Work
         rdf:about="">
        <dc:format>image/svg+xml</dc:format>
        <dc:type
           rdf:resource="http://purl.org/dc/dcmitype/StillImage" />
        <dc:title></dc:title>
      </cc:Work>
    </rdf:RDF>
  </metadata>
  <g
     inkscape:label="Layer 1"
     inkscape:groupmode="layer"
     id="layer1"
     transform="translate(0,-11.250018)">
    <g
       id="g4601"
       transform="matrix(3.6467589,0,0,3.6467589,-169.57831,-330.86936)"
       style="stroke:#cccccc;stroke-opacity:1">
      <g
         style="stroke-width:0.26458332;stroke-miterlimit:5.71428585;stroke-dasharray:none;stroke:#cccccc;stroke-opacity:1"
         id="g840">
        <path
           inkscape:connector-curvature="0"
           id="circle831"
           d="M 197.85876,129.50018 A 23.858757,27.358562 0 0 1 174,156.85875 23.858757,27.358562 0 0 1 150.14124,129.50018 23.858757,27.358562 0 0 1 174,102.14162 a 23.858757,27.358562 0 0 1 23.85876,27.35856 z"
           style="fill:none;fill-opacity:1;stroke:#cccccc;stroke-width:0.26458332;stroke-miterlimit:5.71428585;stroke-dasharray:none;stroke-opacity:1" />
        <path
           inkscape:connector-curvature="0"
           id="circle833"
           d="M 194.86822,124.5 A 19.368216,19.368216 0 0 1 175.5,143.86822 19.368216,19.368216 0 0 1 156.13178,124.5 19.368216,19.368216 0 0 1 175.5,105.13178 19.368216,19.368216 0 0 1 194.86822,124.5 Z"
           style="fill:none;fill-opacity:1;stroke:#cccccc;stroke-width:0.26458332;stroke-miterlimit:5.71428585;stroke-dasharray:none;stroke-opacity:1" />
      </g>
      <g
         style="stroke-width:0.26458332;stroke-miterlimit:5.71428585;stroke-dasharray:none;stroke:#cccccc;stroke-opacity:1"
         transform="translate(0,-9.1552734e-5)"
         id="g836">
        <path
           inkscape:connector-curvature="0"
           id="ellipse843"
           d="m -15.137344,129.50027 a 23.862663,27.354469 0 0 1 -23.862664,27.35447 23.862663,27.354469 0 0 1 -23.862663,-27.35447 23.862663,27.354469 0 0 1 23.862663,-27.35446 23.862663,27.354469 0 0 1 23.862664,27.35446 z"
           style="fill:none;fill-opacity:1;stroke:#cccccc;stroke-width:0.26458332;stroke-miterlimit:5.71428585;stroke-dasharray:none;stroke-opacity:1"
           transform="scale(-1,1)" />
        <path
           inkscape:connector-curvature="0"
           id="circle845"
           d="M -18.131784,124.5 A 19.368216,19.368216 0 0 1 -37.5,143.86822 19.368216,19.368216 0 0 1 -56.868216,124.5 19.368216,19.368216 0 0 1 -37.5,105.13178 19.368216,19.368216 0 0 1 -18.131784,124.5 Z"
           style="fill:none;fill-opacity:1;stroke:#cccccc;stroke-width:0.26458332;stroke-miterlimit:5.71428585;stroke-dasharray:none;stroke-opacity:1"
           transform="scale(-1,1)" />
      </g>
      <path
         sodipodi:nodetypes="ccccc"
         inkscape:connector-curvature="0"
         id="rect832"
         d="m 99.127464,48.28688 h 14.744986 v 59.19268 c -5.11148,-0.71706 -10.02241,-0.71215 -14.744986,-0.0292 z"
         style="fill:none;fill-opacity:1;stroke:#cccccc;stroke-width:0.25501195;stroke-miterlimit:5.71428585;stroke-dasharray:none;stroke-opacity:1" />
      <path
         style="fill:none;fill-opacity:1;stroke:#cccccc;stroke-width:0.24644861;stroke-miterlimit:5.71428585;stroke-dasharray:none;stroke-opacity:1"
         d="M 152.51053,147.5351 A 46.010216,40.534845 0 0 1 106.50031,188.06995 46.010216,40.534845 0 0 1 60.490098,147.5351 46.010216,40.534845 0 0 1 106.50031,107.00026 46.010216,40.534845 0 0 1 152.51053,147.5351 Z"
         id="path829"
         inkscape:connector-curvature="0" />
      <path
         style="fill:none;stroke:#cccccc;stroke-width:0.24622257;stroke-linecap:butt;stroke-linejoin:miter;stroke-miterlimit:5.71428585;stroke-dasharray:none;stroke-opacity:1"
         d="m 66.16658,128.0495 c 29.452478,8.51639 53.30448,9.72339 81.21564,1.07455"
         id="path857"
         inkscape:connector-curvature="0"
         sodipodi:nodetypes="cc" />
      <path
         sodipodi:nodetypes="csc"
         inkscape:connector-curvature="0"
         id="path859"
         d="m 73.253659,119.57275 c 15.698393,-2.30895 26.391221,1.85821 34.607251,1.74424 8.2127,-0.11392 16.24936,-3.9092 31.94776,-1.60024"
         style="fill:none;stroke:#cccccc;stroke-width:0.24578774;stroke-linecap:butt;stroke-linejoin:miter;stroke-miterlimit:5.71428585;stroke-dasharray:none;stroke-opacity:1" />
      <path
         inkscape:connector-curvature="0"
         id="path861"
         d="m 81.180084,118.82146 -4.494283,11.85655"
         style="fill:none;stroke:#cccccc;stroke-width:0.24622257;stroke-linecap:butt;stroke-linejoin:miter;stroke-miterlimit:5.71428585;stroke-dasharray:none;stroke-opacity:1" />
      <path
         style="fill:none;stroke:#cccccc;stroke-width:0.24622257;stroke-linecap:butt;stroke-linejoin:miter;stroke-miterlimit:5.71428585;stroke-dasharray:none;stroke-opacity:1"
         d="m 134.19268,119.14356 3.82972,12.34852"
         id="path863"
         inkscape:connector-curvature="0" />
    </g>
  </g>
</svg>
